<svg width="164" height="39" viewBox="0 0 164 39" fill="none" xmlns="http://www.w3.org/2000/svg">
<path d="M1.76 3.88H4.81C5.25 3.88 5.59667 3.78 5.85 3.58C6.11 3.38 6.24 3.10667 6.24 2.76C6.24 2.40667 6.11 2.13333 5.85 1.94C5.59667 1.74 5.25 1.64 4.81 1.64H1.57L2.16 0.9V8H0.84V0.499999H4.93C5.45667 0.499999 5.91667 0.596666 6.31 0.79C6.71 0.976666 7.02 1.24 7.24 1.58C7.46667 1.91333 7.58 2.30667 7.58 2.76C7.58 3.2 7.46667 3.59 7.24 3.93C7.02 4.26333 6.71 4.52667 6.31 4.72C5.91667 4.90667 5.45667 5 4.93 5H1.76V3.88ZM3.24 4.49H4.79L7.77 8H6.19L3.24 4.49ZM14.9355 3.7V4.8H9.69547V3.7H14.9355ZM10.5655 4.25L10.0355 7.6L9.40547 6.86H15.2255V8H8.68547L9.28547 4.25L8.68547 0.499999H15.1755V1.64H9.40547L10.0355 0.9L10.5655 4.25ZM23.5517 7.2L23.0117 7.26V0.499999H24.2917V8H22.6117L17.3517 1.24L17.8817 1.18V8H16.6017V0.499999H18.3217L23.5517 7.2ZM26.967 6.28V5.19H32.207V6.28H26.967ZM30.447 0.499999L34.047 8H32.637L29.367 1H29.877L26.607 8H25.197L28.797 0.499999H30.447ZM34.9611 0.499999H36.2811V8H34.9611V0.499999ZM37.4991 5.56H38.8391C38.8791 5.86 39.0025 6.12333 39.2091 6.35C39.4225 6.57667 39.7025 6.75333 40.0491 6.88C40.3958 7 40.7958 7.06 41.2491 7.06C41.9225 7.06 42.4558 6.95667 42.8491 6.75C43.2425 6.53667 43.4391 6.25 43.4391 5.89C43.4391 5.59667 43.3258 5.37667 43.0991 5.23C42.8725 5.08333 42.4625 4.97333 41.8691 4.9L40.2491 4.69C39.3425 4.57 38.6825 4.34667 38.2691 4.02C37.8625 3.68667 37.6591 3.21667 37.6591 2.61C37.6591 2.15 37.7958 1.75333 38.0691 1.42C38.3491 1.08 38.7425 0.819999 39.2491 0.639999C39.7558 0.453333 40.3491 0.359999 41.0291 0.359999C41.7025 0.359999 42.2991 0.46 42.8191 0.66C43.3391 0.86 43.7525 1.14 44.0591 1.5C44.3725 1.85333 44.5425 2.27 44.5691 2.75H43.2291C43.1958 2.48333 43.0825 2.25333 42.8891 2.06C42.7025 1.86667 42.4491 1.71667 42.1291 1.61C41.8091 1.49667 41.4325 1.44 40.9991 1.44C40.3858 1.44 39.8958 1.54 39.5291 1.74C39.1625 1.94 38.9791 2.21333 38.9791 2.56C38.9791 2.82667 39.0858 3.03333 39.2991 3.18C39.5191 3.32 39.8991 3.42667 40.4391 3.5L42.0791 3.73C42.7525 3.82333 43.2825 3.95 43.6691 4.11C44.0625 4.26333 44.3425 4.47333 44.5091 4.74C44.6758 5 44.7591 5.33667 44.7591 5.75C44.7591 6.23 44.6125 6.65 44.3191 7.01C44.0258 7.37 43.6125 7.65 43.0791 7.85C42.5525 8.04333 41.9358 8.14 41.2291 8.14C40.5091 8.14 39.8725 8.03333 39.3191 7.82C38.7725 7.6 38.3391 7.29667 38.0191 6.91C37.6991 6.52333 37.5258 6.07333 37.4991 5.56ZM45.5265 5.56H46.8665C46.9065 5.86 47.0298 6.12333 47.2365 6.35C47.4498 6.57667 47.7298 6.75333 48.0765 6.88C48.4232 7 48.8232 7.06 49.2765 7.06C49.9498 7.06 50.4832 6.95667 50.8765 6.75C51.2698 6.53667 51.4665 6.25 51.4665 5.89C51.4665 5.59667 51.3532 5.37667 51.1265 5.23C50.8998 5.08333 50.4898 4.97333 49.8965 4.9L48.2765 4.69C47.3698 4.57 46.7098 4.34667 46.2965 4.02C45.8898 3.68667 45.6865 3.21667 45.6865 2.61C45.6865 2.15 45.8232 1.75333 46.0965 1.42C46.3765 1.08 46.7698 0.819999 47.2765 0.639999C47.7832 0.453333 48.3765 0.359999 49.0565 0.359999C49.7298 0.359999 50.3265 0.46 50.8465 0.66C51.3665 0.86 51.7798 1.14 52.0865 1.5C52.3998 1.85333 52.5698 2.27 52.5965 2.75H51.2565C51.2232 2.48333 51.1098 2.25333 50.9165 2.06C50.7298 1.86667 50.4765 1.71667 50.1565 1.61C49.8365 1.49667 49.4598 1.44 49.0265 1.44C48.4132 1.44 47.9232 1.54 47.5565 1.74C47.1898 1.94 47.0065 2.21333 47.0065 2.56C47.0065 2.82667 47.1132 3.03333 47.3265 3.18C47.5465 3.32 47.9265 3.42667 48.4665 3.5L50.1065 3.73C50.7798 3.82333 51.3098 3.95 51.6965 4.11C52.0898 4.26333 52.3698 4.47333 52.5365 4.74C52.7032 5 52.7865 5.33667 52.7865 5.75C52.7865 6.23 52.6398 6.65 52.3465 7.01C52.0532 7.37 51.6398 7.65 51.1065 7.85C50.5798 8.04333 49.9632 8.14 49.2565 8.14C48.5365 8.14 47.8998 8.03333 47.3465 7.82C46.7998 7.6 46.3665 7.29667 46.0465 6.91C45.7265 6.52333 45.5532 6.07333 45.5265 5.56ZM54.6623 6.28V5.19H59.9023V6.28H54.6623ZM58.1423 0.499999L61.7423 8H60.3323L57.0623 1H57.5723L54.3023 8H52.8923L56.4923 0.499999H58.1423ZM69.6064 7.2L69.0664 7.26V0.499999H70.3464V8H68.6664L63.4064 1.24L63.9364 1.18V8H62.6564V0.499999H64.3764L69.6064 7.2ZM79.9316 5.03C79.865 5.64333 79.6483 6.18667 79.2816 6.66C78.9216 7.12667 78.4483 7.49 77.8616 7.75C77.275 8.01 76.605 8.14 75.8516 8.14C75.0116 8.14 74.275 7.97667 73.6416 7.65C73.0083 7.32333 72.515 6.87 72.1616 6.29C71.8083 5.70333 71.6316 5.02333 71.6316 4.25C71.6316 3.47667 71.8083 2.8 72.1616 2.22C72.515 1.63333 73.0083 1.17667 73.6416 0.85C74.275 0.523333 75.0116 0.359999 75.8516 0.359999C76.605 0.359999 77.275 0.49 77.8616 0.75C78.4483 1.01 78.9216 1.37333 79.2816 1.84C79.6483 2.30667 79.865 2.85 79.9316 3.47H78.6016C78.5283 3.07 78.3683 2.72667 78.1216 2.44C77.8816 2.15333 77.5683 1.93333 77.1816 1.78C76.795 1.62 76.3483 1.54 75.8416 1.54C75.255 1.54 74.745 1.65 74.3116 1.87C73.885 2.09 73.555 2.40333 73.3216 2.81C73.0883 3.21667 72.9716 3.69667 72.9716 4.25C72.9716 4.80333 73.0883 5.28333 73.3216 5.69C73.555 6.09667 73.885 6.41 74.3116 6.63C74.745 6.85 75.255 6.96 75.8416 6.96C76.3483 6.96 76.795 6.88333 77.1816 6.73C77.5683 6.57667 77.8816 6.35667 78.1216 6.07C78.3683 5.77667 78.5283 5.43 78.6016 5.03H79.9316ZM87.1327 3.7V4.8H81.8927V3.7H87.1327ZM82.7627 4.25L82.2327 7.6L81.6027 6.86H87.4227V8H80.8827L81.4827 4.25L80.8827 0.499999H87.3727V1.64H81.6027L82.2327 0.9L82.7627 4.25Z" fill="#696969"/>
<path d="M4.08 29.6H9.7C10.4067 29.6 10.9667 29.44 11.38 29.12C11.7933 28.7867 12 28.3267 12 27.74C12 27.1533 11.7933 26.7 11.38 26.38C10.9667 26.0467 10.4067 25.88 9.7 25.88H3.54L5.24 24.02V38H1.46V23H10.2C11.32 23 12.3 23.2 13.14 23.6C13.98 24 14.6333 24.5533 15.1 25.26C15.5667 25.9667 15.8 26.7933 15.8 27.74C15.8 28.6733 15.5667 29.4933 15.1 30.2C14.6333 30.9067 13.98 31.46 13.14 31.86C12.3 32.26 11.32 32.46 10.2 32.46H4.08V29.6ZM6.5 30.98H10.76L16.28 38H11.9L6.5 30.98ZM30.8769 29.1V31.9H20.0169V29.1H30.8769ZM22.5769 30.5L21.5769 36.7L19.9969 34.9H31.5169V38H17.7969L18.9569 30.5L17.7969 23H31.4169V26.1H19.9969L21.5769 24.3L22.5769 30.5ZM36.4061 34.98V31.92H46.7661V34.98H36.4061ZM44.1261 23L51.0461 38H47.0261L41.0861 24.58H42.2461L36.3261 38H32.2861L39.2261 23H44.1261ZM56.3533 23V36.32L54.6533 34.66H65.8933V38H52.5733V23H56.3533ZM84.7245 29.1V31.9H73.8645V29.1H84.7245ZM76.4245 30.5L75.4245 36.7L73.8445 34.9H85.3645V38H71.6445L72.8045 30.5L71.6445 23H85.2645V26.1H73.8445L75.4245 24.3L76.4245 30.5ZM87.1267 33.1H90.9467C91.0134 33.5533 91.2201 33.9533 91.5667 34.3C91.9134 34.6467 92.3734 34.9133 92.9467 35.1C93.5334 35.2867 94.2134 35.38 94.9867 35.38C96.0934 35.38 96.9601 35.2267 97.5867 34.92C98.2267 34.6133 98.5467 34.18 98.5467 33.62C98.5467 33.1933 98.3601 32.8667 97.9867 32.64C97.6267 32.4 96.9467 32.2267 95.9467 32.12L93.0467 31.82C91.0334 31.62 89.5734 31.1533 88.6667 30.42C87.7734 29.6867 87.3267 28.6867 87.3267 27.42C87.3267 26.42 87.6201 25.5667 88.2067 24.86C88.8067 24.1533 89.6401 23.6133 90.7067 23.24C91.7867 22.8667 93.0467 22.68 94.4867 22.68C95.9134 22.68 97.1734 22.8867 98.2667 23.3C99.3601 23.7133 100.233 24.2867 100.887 25.02C101.54 25.7533 101.893 26.6133 101.947 27.6H98.1267C98.0734 27.1867 97.8867 26.84 97.5667 26.56C97.2601 26.2667 96.8401 26.04 96.3067 25.88C95.7867 25.7067 95.1601 25.62 94.4267 25.62C93.4134 25.62 92.6067 25.7667 92.0067 26.06C91.4201 26.34 91.1267 26.7467 91.1267 27.28C91.1267 27.68 91.3001 27.9933 91.6467 28.22C92.0067 28.4467 92.6401 28.6133 93.5467 28.72L96.6067 29.06C98.0067 29.2067 99.1267 29.44 99.9667 29.76C100.807 30.08 101.413 30.52 101.787 31.08C102.16 31.64 102.347 32.3467 102.347 33.2C102.347 34.2267 102.033 35.1267 101.407 35.9C100.793 36.66 99.9267 37.2533 98.8067 37.68C97.7001 38.1067 96.4067 38.32 94.9267 38.32C93.3934 38.32 92.0467 38.1 90.8867 37.66C89.7401 37.22 88.8334 36.6133 88.1667 35.84C87.5134 35.0533 87.1667 34.14 87.1267 33.1ZM108.7 24.68H112.48V38H108.7V24.68ZM102.86 23H118.32V26.34H102.86V23ZM120.371 34.98V31.92H130.731V34.98H120.371ZM128.091 23L135.011 38H130.991L125.051 24.58H126.211L120.291 38H116.251L123.191 23H128.091ZM138.817 24.68H142.597V38H138.817V24.68ZM132.977 23H148.437V26.34H132.977V23ZM162.869 29.1V31.9H152.009V29.1H162.869ZM154.569 30.5L153.569 36.7L151.989 34.9H163.509V38H149.789L150.949 30.5L149.789 23H163.409V26.1H151.989L153.569 24.3L154.569 30.5Z" fill="#292929"/>
</svg>
