<svg width="195" height="39" viewBox="0 0 195 39" fill="none" xmlns="http://www.w3.org/2000/svg">
<path d="M1.76 3.88H4.81C5.25 3.88 5.59667 3.78 5.85 3.58C6.11 3.38 6.24 3.10667 6.24 2.76C6.24 2.40667 6.11 2.13333 5.85 1.94C5.59667 1.74 5.25 1.64 4.81 1.64H1.57L2.16 0.9V8H0.84V0.499999H4.93C5.45667 0.499999 5.91667 0.596666 6.31 0.79C6.71 0.976666 7.02 1.24 7.24 1.58C7.46667 1.91333 7.58 2.30667 7.58 2.76C7.58 3.2 7.46667 3.59 7.24 3.93C7.02 4.26333 6.71 4.52667 6.31 4.72C5.91667 4.90667 5.45667 5 4.93 5H1.76V3.88ZM3.24 4.49H4.79L7.77 8H6.19L3.24 4.49ZM14.9355 3.7V4.8H9.69547V3.7H14.9355ZM10.5655 4.25L10.0355 7.6L9.40547 6.86H15.2255V8H8.68547L9.28547 4.25L8.68547 0.499999H15.1755V1.64H9.40547L10.0355 0.9L10.5655 4.25ZM23.5517 7.2L23.0117 7.26V0.499999H24.2917V8H22.6117L17.3517 1.24L17.8817 1.18V8H16.6017V0.499999H18.3217L23.5517 7.2ZM26.967 6.28V5.19H32.207V6.28H26.967ZM30.447 0.499999L34.047 8H32.637L29.367 1H29.877L26.607 8H25.197L28.797 0.499999H30.447ZM34.9611 0.499999H36.2811V8H34.9611V0.499999ZM37.4991 5.56H38.8391C38.8791 5.86 39.0025 6.12333 39.2091 6.35C39.4225 6.57667 39.7025 6.75333 40.0491 6.88C40.3958 7 40.7958 7.06 41.2491 7.06C41.9225 7.06 42.4558 6.95667 42.8491 6.75C43.2425 6.53667 43.4391 6.25 43.4391 5.89C43.4391 5.59667 43.3258 5.37667 43.0991 5.23C42.8725 5.08333 42.4625 4.97333 41.8691 4.9L40.2491 4.69C39.3425 4.57 38.6825 4.34667 38.2691 4.02C37.8625 3.68667 37.6591 3.21667 37.6591 2.61C37.6591 2.15 37.7958 1.75333 38.0691 1.42C38.3491 1.08 38.7425 0.819999 39.2491 0.639999C39.7558 0.453333 40.3491 0.359999 41.0291 0.359999C41.7025 0.359999 42.2991 0.46 42.8191 0.66C43.3391 0.86 43.7525 1.14 44.0591 1.5C44.3725 1.85333 44.5425 2.27 44.5691 2.75H43.2291C43.1958 2.48333 43.0825 2.25333 42.8891 2.06C42.7025 1.86667 42.4491 1.71667 42.1291 1.61C41.8091 1.49667 41.4325 1.44 40.9991 1.44C40.3858 1.44 39.8958 1.54 39.5291 1.74C39.1625 1.94 38.9791 2.21333 38.9791 2.56C38.9791 2.82667 39.0858 3.03333 39.2991 3.18C39.5191 3.32 39.8991 3.42667 40.4391 3.5L42.0791 3.73C42.7525 3.82333 43.2825 3.95 43.6691 4.11C44.0625 4.26333 44.3425 4.47333 44.5091 4.74C44.6758 5 44.7591 5.33667 44.7591 5.75C44.7591 6.23 44.6125 6.65 44.3191 7.01C44.0258 7.37 43.6125 7.65 43.0791 7.85C42.5525 8.04333 41.9358 8.14 41.2291 8.14C40.5091 8.14 39.8725 8.03333 39.3191 7.82C38.7725 7.6 38.3391 7.29667 38.0191 6.91C37.6991 6.52333 37.5258 6.07333 37.4991 5.56ZM45.5265 5.56H46.8665C46.9065 5.86 47.0298 6.12333 47.2365 6.35C47.4498 6.57667 47.7298 6.75333 48.0765 6.88C48.4232 7 48.8232 7.06 49.2765 7.06C49.9498 7.06 50.4832 6.95667 50.8765 6.75C51.2698 6.53667 51.4665 6.25 51.4665 5.89C51.4665 5.59667 51.3532 5.37667 51.1265 5.23C50.8998 5.08333 50.4898 4.97333 49.8965 4.9L48.2765 4.69C47.3698 4.57 46.7098 4.34667 46.2965 4.02C45.8898 3.68667 45.6865 3.21667 45.6865 2.61C45.6865 2.15 45.8232 1.75333 46.0965 1.42C46.3765 1.08 46.7698 0.819999 47.2765 0.639999C47.7832 0.453333 48.3765 0.359999 49.0565 0.359999C49.7298 0.359999 50.3265 0.46 50.8465 0.66C51.3665 0.86 51.7798 1.14 52.0865 1.5C52.3998 1.85333 52.5698 2.27 52.5965 2.75H51.2565C51.2232 2.48333 51.1098 2.25333 50.9165 2.06C50.7298 1.86667 50.4765 1.71667 50.1565 1.61C49.8365 1.49667 49.4598 1.44 49.0265 1.44C48.4132 1.44 47.9232 1.54 47.5565 1.74C47.1898 1.94 47.0065 2.21333 47.0065 2.56C47.0065 2.82667 47.1132 3.03333 47.3265 3.18C47.5465 3.32 47.9265 3.42667 48.4665 3.5L50.1065 3.73C50.7798 3.82333 51.3098 3.95 51.6965 4.11C52.0898 4.26333 52.3698 4.47333 52.5365 4.74C52.7032 5 52.7865 5.33667 52.7865 5.75C52.7865 6.23 52.6398 6.65 52.3465 7.01C52.0532 7.37 51.6398 7.65 51.1065 7.85C50.5798 8.04333 49.9632 8.14 49.2565 8.14C48.5365 8.14 47.8998 8.03333 47.3465 7.82C46.7998 7.6 46.3665 7.29667 46.0465 6.91C45.7265 6.52333 45.5532 6.07333 45.5265 5.56ZM54.6623 6.28V5.19H59.9023V6.28H54.6623ZM58.1423 0.499999L61.7423 8H60.3323L57.0623 1H57.5723L54.3023 8H52.8923L56.4923 0.499999H58.1423ZM69.6064 7.2L69.0664 7.26V0.499999H70.3464V8H68.6664L63.4064 1.24L63.9364 1.18V8H62.6564V0.499999H64.3764L69.6064 7.2ZM79.9316 5.03C79.865 5.64333 79.6483 6.18667 79.2816 6.66C78.9216 7.12667 78.4483 7.49 77.8616 7.75C77.275 8.01 76.605 8.14 75.8516 8.14C75.0116 8.14 74.275 7.97667 73.6416 7.65C73.0083 7.32333 72.515 6.87 72.1616 6.29C71.8083 5.70333 71.6316 5.02333 71.6316 4.25C71.6316 3.47667 71.8083 2.8 72.1616 2.22C72.515 1.63333 73.0083 1.17667 73.6416 0.85C74.275 0.523333 75.0116 0.359999 75.8516 0.359999C76.605 0.359999 77.275 0.49 77.8616 0.75C78.4483 1.01 78.9216 1.37333 79.2816 1.84C79.6483 2.30667 79.865 2.85 79.9316 3.47H78.6016C78.5283 3.07 78.3683 2.72667 78.1216 2.44C77.8816 2.15333 77.5683 1.93333 77.1816 1.78C76.795 1.62 76.3483 1.54 75.8416 1.54C75.255 1.54 74.745 1.65 74.3116 1.87C73.885 2.09 73.555 2.40333 73.3216 2.81C73.0883 3.21667 72.9716 3.69667 72.9716 4.25C72.9716 4.80333 73.0883 5.28333 73.3216 5.69C73.555 6.09667 73.885 6.41 74.3116 6.63C74.745 6.85 75.255 6.96 75.8416 6.96C76.3483 6.96 76.795 6.88333 77.1816 6.73C77.5683 6.57667 77.8816 6.35667 78.1216 6.07C78.3683 5.77667 78.5283 5.43 78.6016 5.03H79.9316ZM87.1327 3.7V4.8H81.8927V3.7H87.1327ZM82.7627 4.25L82.2327 7.6L81.6027 6.86H87.4227V8H80.8827L81.4827 4.25L80.8827 0.499999H87.3727V1.64H81.6027L82.2327 0.9L82.7627 4.25Z" fill="#696969"/>
<path d="M16.74 31.5C16.7133 32.4067 16.5333 33.2733 16.2 34.1C15.8667 34.9133 15.3867 35.64 14.76 36.28C14.1333 36.9067 13.36 37.4067 12.44 37.78C11.52 38.14 10.4467 38.32 9.22 38.32C8.04667 38.32 6.94667 38.1467 5.92 37.8C4.90667 37.4533 4.01333 36.9467 3.24 36.28C2.46667 35.6133 1.86667 34.7933 1.44 33.82C1.01333 32.8467 0.8 31.74 0.8 30.5C0.8 29.26 1.01333 28.1533 1.44 27.18C1.88 26.2067 2.48667 25.3867 3.26 24.72C4.04667 24.0533 4.96 23.5467 6 23.2C7.05333 22.8533 8.2 22.68 9.44 22.68C11.0533 22.68 12.4533 22.9333 13.64 23.44C14.84 23.9467 15.8 24.64 16.52 25.52C17.2533 26.4 17.72 27.4133 17.92 28.56H14.1C13.9667 28 13.6867 27.52 13.26 27.12C12.8333 26.72 12.2933 26.4133 11.64 26.2C11 25.9733 10.2667 25.86 9.44 25.86C8.44 25.86 7.58 26.04 6.86 26.4C6.14 26.7467 5.58 27.2667 5.18 27.96C4.78 28.64 4.58 29.4867 4.58 30.5C4.58 31.5133 4.79333 32.3733 5.22 33.08C5.64667 33.7867 6.24667 34.32 7.02 34.68C7.79333 35.04 8.70667 35.22 9.76 35.22C10.7867 35.22 11.6867 35.0667 12.46 34.76C13.2467 34.4533 13.8667 34.0133 14.32 33.44C14.7867 32.8667 15.0533 32.18 15.12 31.38L16.74 31.5ZM10.2 33.02V30.34H18.06V38H15.36L14.84 32L15.6 33.02H10.2ZM23.2792 29.6H28.8992C29.6059 29.6 30.1659 29.44 30.5792 29.12C30.9926 28.7867 31.1992 28.3267 31.1992 27.74C31.1992 27.1533 30.9926 26.7 30.5792 26.38C30.1659 26.0467 29.6059 25.88 28.8992 25.88H22.7392L24.4392 24.02V38H20.6592V23H29.3992C30.5192 23 31.4992 23.2 32.3392 23.6C33.1792 24 33.8326 24.5533 34.2992 25.26C34.7659 25.9667 34.9992 26.7933 34.9992 27.74C34.9992 28.6733 34.7659 29.4933 34.2992 30.2C33.8326 30.9067 33.1792 31.46 32.3392 31.86C31.4992 32.26 30.5192 32.46 29.3992 32.46H23.2792V29.6ZM25.6992 30.98H29.9592L35.4792 38H31.0992L25.6992 30.98ZM50.0761 29.1V31.9H39.2161V29.1H50.0761ZM41.7761 30.5L40.7761 36.7L39.1961 34.9H50.7161V38H36.9961L38.1561 30.5L36.9961 23H50.6161V26.1H39.1961L40.7761 24.3L41.7761 30.5ZM65.8183 29.1V31.9H54.9583V29.1H65.8183ZM57.5183 30.5L56.5183 36.7L54.9383 34.9H66.4583V38H52.7383L53.8983 30.5L52.7383 23H66.3583V26.1H54.9383L56.5183 24.3L57.5183 30.5ZM82.8405 35.42L81.6205 35.64V23H85.2805V38H80.5205L71.3805 25.36L72.6005 25.14V38H68.9405V23H73.8405L82.8405 35.42ZM105.857 29.1V31.9H94.9973V29.1H105.857ZM97.5573 30.5L96.5573 36.7L94.9773 34.9H106.497V38H92.7773L93.9373 30.5L92.7773 23H106.397V26.1H94.9773L96.5573 24.3L97.5573 30.5ZM122.88 35.42L121.66 35.64V23H125.32V38H120.56L111.42 25.36L112.64 25.14V38H108.98V23H113.88L122.88 35.42ZM140.857 29.1V31.9H129.997V29.1H140.857ZM132.557 30.5L131.557 36.7L129.977 34.9H141.497V38H127.777L128.937 30.5L127.777 23H141.397V26.1H129.977L131.557 24.3L132.557 30.5ZM146.6 29.6H152.22C152.926 29.6 153.486 29.44 153.9 29.12C154.313 28.7867 154.52 28.3267 154.52 27.74C154.52 27.1533 154.313 26.7 153.9 26.38C153.486 26.0467 152.926 25.88 152.22 25.88H146.06L147.76 24.02V38H143.98V23H152.72C153.84 23 154.82 23.2 155.66 23.6C156.5 24 157.153 24.5533 157.62 25.26C158.086 25.9667 158.32 26.7933 158.32 27.74C158.32 28.6733 158.086 29.4933 157.62 30.2C157.153 30.9067 156.5 31.46 155.66 31.86C154.82 32.26 153.84 32.46 152.72 32.46H146.6V29.6ZM149.02 30.98H153.28L158.8 38H154.42L149.02 30.98ZM175.92 31.5C175.893 32.4067 175.713 33.2733 175.38 34.1C175.046 34.9133 174.566 35.64 173.94 36.28C173.313 36.9067 172.54 37.4067 171.62 37.78C170.7 38.14 169.626 38.32 168.4 38.32C167.226 38.32 166.126 38.1467 165.1 37.8C164.086 37.4533 163.193 36.9467 162.42 36.28C161.646 35.6133 161.046 34.7933 160.62 33.82C160.193 32.8467 159.98 31.74 159.98 30.5C159.98 29.26 160.193 28.1533 160.62 27.18C161.06 26.2067 161.666 25.3867 162.44 24.72C163.226 24.0533 164.14 23.5467 165.18 23.2C166.233 22.8533 167.38 22.68 168.62 22.68C170.233 22.68 171.633 22.9333 172.82 23.44C174.02 23.9467 174.98 24.64 175.7 25.52C176.433 26.4 176.9 27.4133 177.1 28.56H173.28C173.146 28 172.866 27.52 172.44 27.12C172.013 26.72 171.473 26.4133 170.82 26.2C170.18 25.9733 169.446 25.86 168.62 25.86C167.62 25.86 166.76 26.04 166.04 26.4C165.32 26.7467 164.76 27.2667 164.36 27.96C163.96 28.64 163.76 29.4867 163.76 30.5C163.76 31.5133 163.973 32.3733 164.4 33.08C164.826 33.7867 165.426 34.32 166.2 34.68C166.973 35.04 167.886 35.22 168.94 35.22C169.966 35.22 170.866 35.0667 171.64 34.76C172.426 34.4533 173.046 34.0133 173.5 33.44C173.966 32.8667 174.233 32.18 174.3 31.38L175.92 31.5ZM169.38 33.02V30.34H177.24V38H174.54L174.02 32L174.78 33.02H169.38ZM183.665 38V30.74H187.445V38H183.665ZM176.625 23H180.805L186.405 30.12H184.665L190.265 23H194.445L186.765 32.76L184.325 32.8L176.625 23Z" fill="#292929"/>
</svg>
