<svg width="202" height="39" viewBox="0 0 202 39" fill="none" xmlns="http://www.w3.org/2000/svg">
<path d="M1.76 3.88H4.81C5.25 3.88 5.59667 3.78 5.85 3.58C6.11 3.38 6.24 3.10667 6.24 2.76C6.24 2.40667 6.11 2.13333 5.85 1.94C5.59667 1.74 5.25 1.64 4.81 1.64H1.57L2.16 0.9V8H0.84V0.499999H4.93C5.45667 0.499999 5.91667 0.596666 6.31 0.79C6.71 0.976666 7.02 1.24 7.24 1.58C7.46667 1.91333 7.58 2.30667 7.58 2.76C7.58 3.2 7.46667 3.59 7.24 3.93C7.02 4.26333 6.71 4.52667 6.31 4.72C5.91667 4.90667 5.45667 5 4.93 5H1.76V3.88ZM3.24 4.49H4.79L7.77 8H6.19L3.24 4.49ZM14.9355 3.7V4.8H9.69547V3.7H14.9355ZM10.5655 4.25L10.0355 7.6L9.40547 6.86H15.2255V8H8.68547L9.28547 4.25L8.68547 0.499999H15.1755V1.64H9.40547L10.0355 0.9L10.5655 4.25ZM23.5517 7.2L23.0117 7.26V0.499999H24.2917V8H22.6117L17.3517 1.24L17.8817 1.18V8H16.6017V0.499999H18.3217L23.5517 7.2ZM26.967 6.28V5.19H32.207V6.28H26.967ZM30.447 0.499999L34.047 8H32.637L29.367 1H29.877L26.607 8H25.197L28.797 0.499999H30.447ZM34.9611 0.499999H36.2811V8H34.9611V0.499999ZM37.4991 5.56H38.8391C38.8791 5.86 39.0025 6.12333 39.2091 6.35C39.4225 6.57667 39.7025 6.75333 40.0491 6.88C40.3958 7 40.7958 7.06 41.2491 7.06C41.9225 7.06 42.4558 6.95667 42.8491 6.75C43.2425 6.53667 43.4391 6.25 43.4391 5.89C43.4391 5.59667 43.3258 5.37667 43.0991 5.23C42.8725 5.08333 42.4625 4.97333 41.8691 4.9L40.2491 4.69C39.3425 4.57 38.6825 4.34667 38.2691 4.02C37.8625 3.68667 37.6591 3.21667 37.6591 2.61C37.6591 2.15 37.7958 1.75333 38.0691 1.42C38.3491 1.08 38.7425 0.819999 39.2491 0.639999C39.7558 0.453333 40.3491 0.359999 41.0291 0.359999C41.7025 0.359999 42.2991 0.46 42.8191 0.66C43.3391 0.86 43.7525 1.14 44.0591 1.5C44.3725 1.85333 44.5425 2.27 44.5691 2.75H43.2291C43.1958 2.48333 43.0825 2.25333 42.8891 2.06C42.7025 1.86667 42.4491 1.71667 42.1291 1.61C41.8091 1.49667 41.4325 1.44 40.9991 1.44C40.3858 1.44 39.8958 1.54 39.5291 1.74C39.1625 1.94 38.9791 2.21333 38.9791 2.56C38.9791 2.82667 39.0858 3.03333 39.2991 3.18C39.5191 3.32 39.8991 3.42667 40.4391 3.5L42.0791 3.73C42.7525 3.82333 43.2825 3.95 43.6691 4.11C44.0625 4.26333 44.3425 4.47333 44.5091 4.74C44.6758 5 44.7591 5.33667 44.7591 5.75C44.7591 6.23 44.6125 6.65 44.3191 7.01C44.0258 7.37 43.6125 7.65 43.0791 7.85C42.5525 8.04333 41.9358 8.14 41.2291 8.14C40.5091 8.14 39.8725 8.03333 39.3191 7.82C38.7725 7.6 38.3391 7.29667 38.0191 6.91C37.6991 6.52333 37.5258 6.07333 37.4991 5.56ZM45.5265 5.56H46.8665C46.9065 5.86 47.0298 6.12333 47.2365 6.35C47.4498 6.57667 47.7298 6.75333 48.0765 6.88C48.4232 7 48.8232 7.06 49.2765 7.06C49.9498 7.06 50.4832 6.95667 50.8765 6.75C51.2698 6.53667 51.4665 6.25 51.4665 5.89C51.4665 5.59667 51.3532 5.37667 51.1265 5.23C50.8998 5.08333 50.4898 4.97333 49.8965 4.9L48.2765 4.69C47.3698 4.57 46.7098 4.34667 46.2965 4.02C45.8898 3.68667 45.6865 3.21667 45.6865 2.61C45.6865 2.15 45.8232 1.75333 46.0965 1.42C46.3765 1.08 46.7698 0.819999 47.2765 0.639999C47.7832 0.453333 48.3765 0.359999 49.0565 0.359999C49.7298 0.359999 50.3265 0.46 50.8465 0.66C51.3665 0.86 51.7798 1.14 52.0865 1.5C52.3998 1.85333 52.5698 2.27 52.5965 2.75H51.2565C51.2232 2.48333 51.1098 2.25333 50.9165 2.06C50.7298 1.86667 50.4765 1.71667 50.1565 1.61C49.8365 1.49667 49.4598 1.44 49.0265 1.44C48.4132 1.44 47.9232 1.54 47.5565 1.74C47.1898 1.94 47.0065 2.21333 47.0065 2.56C47.0065 2.82667 47.1132 3.03333 47.3265 3.18C47.5465 3.32 47.9265 3.42667 48.4665 3.5L50.1065 3.73C50.7798 3.82333 51.3098 3.95 51.6965 4.11C52.0898 4.26333 52.3698 4.47333 52.5365 4.74C52.7032 5 52.7865 5.33667 52.7865 5.75C52.7865 6.23 52.6398 6.65 52.3465 7.01C52.0532 7.37 51.6398 7.65 51.1065 7.85C50.5798 8.04333 49.9632 8.14 49.2565 8.14C48.5365 8.14 47.8998 8.03333 47.3465 7.82C46.7998 7.6 46.3665 7.29667 46.0465 6.91C45.7265 6.52333 45.5532 6.07333 45.5265 5.56ZM54.6623 6.28V5.19H59.9023V6.28H54.6623ZM58.1423 0.499999L61.7423 8H60.3323L57.0623 1H57.5723L54.3023 8H52.8923L56.4923 0.499999H58.1423ZM69.6064 7.2L69.0664 7.26V0.499999H70.3464V8H68.6664L63.4064 1.24L63.9364 1.18V8H62.6564V0.499999H64.3764L69.6064 7.2ZM79.9316 5.03C79.865 5.64333 79.6483 6.18667 79.2816 6.66C78.9216 7.12667 78.4483 7.49 77.8616 7.75C77.275 8.01 76.605 8.14 75.8516 8.14C75.0116 8.14 74.275 7.97667 73.6416 7.65C73.0083 7.32333 72.515 6.87 72.1616 6.29C71.8083 5.70333 71.6316 5.02333 71.6316 4.25C71.6316 3.47667 71.8083 2.8 72.1616 2.22C72.515 1.63333 73.0083 1.17667 73.6416 0.85C74.275 0.523333 75.0116 0.359999 75.8516 0.359999C76.605 0.359999 77.275 0.49 77.8616 0.75C78.4483 1.01 78.9216 1.37333 79.2816 1.84C79.6483 2.30667 79.865 2.85 79.9316 3.47H78.6016C78.5283 3.07 78.3683 2.72667 78.1216 2.44C77.8816 2.15333 77.5683 1.93333 77.1816 1.78C76.795 1.62 76.3483 1.54 75.8416 1.54C75.255 1.54 74.745 1.65 74.3116 1.87C73.885 2.09 73.555 2.40333 73.3216 2.81C73.0883 3.21667 72.9716 3.69667 72.9716 4.25C72.9716 4.80333 73.0883 5.28333 73.3216 5.69C73.555 6.09667 73.885 6.41 74.3116 6.63C74.745 6.85 75.255 6.96 75.8416 6.96C76.3483 6.96 76.795 6.88333 77.1816 6.73C77.5683 6.57667 77.8816 6.35667 78.1216 6.07C78.3683 5.77667 78.5283 5.43 78.6016 5.03H79.9316ZM87.1327 3.7V4.8H81.8927V3.7H87.1327ZM82.7627 4.25L82.2327 7.6L81.6027 6.86H87.4227V8H80.8827L81.4827 4.25L80.8827 0.499999H87.3727V1.64H81.6027L82.2327 0.9L82.7627 4.25Z" fill="#696969"/>
<path d="M17.92 31.8C17.7733 33.0933 17.3267 34.2333 16.58 35.22C15.8333 36.1933 14.8467 36.9533 13.62 37.5C12.3933 38.0467 11 38.32 9.44 38.32C7.70667 38.32 6.18667 37.9933 4.88 37.34C3.58667 36.6867 2.58 35.7733 1.86 34.6C1.14 33.4267 0.78 32.06 0.78 30.5C0.78 28.94 1.14 27.5733 1.86 26.4C2.58 25.2267 3.58667 24.3133 4.88 23.66C6.18667 23.0067 7.70667 22.68 9.44 22.68C11 22.68 12.3933 22.9533 13.62 23.5C14.8467 24.0467 15.8333 24.8067 16.58 25.78C17.3267 26.7533 17.7733 27.8933 17.92 29.2H14.12C13.9867 28.52 13.7133 27.94 13.3 27.46C12.9 26.98 12.3667 26.6133 11.7 26.36C11.0467 26.0933 10.2867 25.96 9.42 25.96C8.42 25.96 7.56 26.1467 6.84 26.52C6.12 26.88 5.56667 27.4 5.18 28.08C4.79333 28.76 4.6 29.5667 4.6 30.5C4.6 31.4333 4.79333 32.24 5.18 32.92C5.56667 33.6 6.12 34.1267 6.84 34.5C7.56 34.86 8.42 35.04 9.42 35.04C10.2867 35.04 11.0467 34.9133 11.7 34.66C12.3667 34.4067 12.9 34.04 13.3 33.56C13.7133 33.08 13.9867 32.4933 14.12 31.8H17.92ZM28.1742 38.32C26.4142 38.32 24.8676 37.9933 23.5342 37.34C22.2142 36.6867 21.1876 35.7733 20.4542 34.6C19.7209 33.4267 19.3542 32.06 19.3542 30.5C19.3542 28.94 19.7209 27.5733 20.4542 26.4C21.1876 25.2267 22.2142 24.3133 23.5342 23.66C24.8676 23.0067 26.4142 22.68 28.1742 22.68C29.9342 22.68 31.4742 23.0067 32.7942 23.66C34.1276 24.3133 35.1609 25.2267 35.8942 26.4C36.6409 27.5733 37.0142 28.94 37.0142 30.5C37.0142 32.06 36.6409 33.4267 35.8942 34.6C35.1609 35.7733 34.1276 36.6867 32.7942 37.34C31.4742 37.9933 29.9342 38.32 28.1742 38.32ZM28.1742 34.94C29.2142 34.94 30.1076 34.7667 30.8542 34.42C31.6009 34.06 32.1742 33.5467 32.5742 32.88C32.9876 32.2133 33.1942 31.42 33.1942 30.5C33.1942 29.58 32.9876 28.7867 32.5742 28.12C32.1742 27.4533 31.6009 26.9467 30.8542 26.6C30.1076 26.24 29.2142 26.06 28.1742 26.06C27.1476 26.06 26.2609 26.24 25.5142 26.6C24.7676 26.9467 24.1876 27.4533 23.7742 28.12C23.3609 28.7867 23.1542 29.58 23.1542 30.5C23.1542 31.42 23.3609 32.2133 23.7742 32.88C24.1876 33.5467 24.7676 34.06 25.5142 34.42C26.2609 34.7667 27.1476 34.94 28.1742 34.94ZM53.153 35.42L51.933 35.64V23H55.593V38H50.833L41.693 25.36L42.913 25.14V38H39.253V23H44.153L53.153 35.42ZM57.7908 33.1H61.6108C61.6774 33.5533 61.8841 33.9533 62.2308 34.3C62.5774 34.6467 63.0374 34.9133 63.6108 35.1C64.1974 35.2867 64.8774 35.38 65.6508 35.38C66.7574 35.38 67.6241 35.2267 68.2508 34.92C68.8908 34.6133 69.2108 34.18 69.2108 33.62C69.2108 33.1933 69.0241 32.8667 68.6508 32.64C68.2908 32.4 67.6108 32.2267 66.6108 32.12L63.7108 31.82C61.6974 31.62 60.2374 31.1533 59.3308 30.42C58.4374 29.6867 57.9908 28.6867 57.9908 27.42C57.9908 26.42 58.2841 25.5667 58.8708 24.86C59.4708 24.1533 60.3041 23.6133 61.3708 23.24C62.4508 22.8667 63.7108 22.68 65.1508 22.68C66.5774 22.68 67.8374 22.8867 68.9308 23.3C70.0241 23.7133 70.8974 24.2867 71.5508 25.02C72.2041 25.7533 72.5574 26.6133 72.6108 27.6H68.7908C68.7374 27.1867 68.5508 26.84 68.2308 26.56C67.9241 26.2667 67.5041 26.04 66.9708 25.88C66.4508 25.7067 65.8241 25.62 65.0908 25.62C64.0774 25.62 63.2708 25.7667 62.6708 26.06C62.0841 26.34 61.7908 26.7467 61.7908 27.28C61.7908 27.68 61.9641 27.9933 62.3108 28.22C62.6708 28.4467 63.3041 28.6133 64.2108 28.72L67.2708 29.06C68.6708 29.2067 69.7908 29.44 70.6308 29.76C71.4708 30.08 72.0774 30.52 72.4508 31.08C72.8241 31.64 73.0108 32.3467 73.0108 33.2C73.0108 34.2267 72.6974 35.1267 72.0708 35.9C71.4574 36.66 70.5908 37.2533 69.4708 37.68C68.3641 38.1067 67.0708 38.32 65.5908 38.32C64.0574 38.32 62.7108 38.1 61.5508 37.66C60.4041 37.22 59.4974 36.6133 58.8308 35.84C58.1774 35.0533 57.8308 34.14 57.7908 33.1ZM79.3641 24.68H83.1441V38H79.3641V24.68ZM73.5241 23H88.9841V26.34H73.5241V23ZM93.4159 29.6H99.0359C99.7426 29.6 100.303 29.44 100.716 29.12C101.129 28.7867 101.336 28.3267 101.336 27.74C101.336 27.1533 101.129 26.7 100.716 26.38C100.303 26.0467 99.7426 25.88 99.0359 25.88H92.8759L94.5759 24.02V38H90.7959V23H99.5359C100.656 23 101.636 23.2 102.476 23.6C103.316 24 103.969 24.5533 104.436 25.26C104.903 25.9667 105.136 26.7933 105.136 27.74C105.136 28.6733 104.903 29.4933 104.436 30.2C103.969 30.9067 103.316 31.46 102.476 31.86C101.636 32.26 100.656 32.46 99.5359 32.46H93.4159V29.6ZM95.8359 30.98H100.096L105.616 38H101.236L95.8359 30.98ZM111.114 31.36C111.114 32.0933 111.254 32.7333 111.534 33.28C111.828 33.8133 112.248 34.2267 112.794 34.52C113.341 34.8 114.014 34.94 114.814 34.94C115.614 34.94 116.288 34.8 116.834 34.52C117.381 34.2267 117.794 33.8133 118.074 33.28C118.368 32.7333 118.514 32.0933 118.514 31.36V23H122.294V31.54C122.294 32.9 121.981 34.0867 121.354 35.1C120.728 36.1133 119.854 36.9067 118.734 37.48C117.614 38.04 116.308 38.32 114.814 38.32C113.321 38.32 112.014 38.04 110.894 37.48C109.774 36.9067 108.901 36.1133 108.274 35.1C107.648 34.0867 107.334 32.9 107.334 31.54V23H111.114V31.36ZM141.475 31.8C141.328 33.0933 140.881 34.2333 140.135 35.22C139.388 36.1933 138.401 36.9533 137.175 37.5C135.948 38.0467 134.555 38.32 132.995 38.32C131.261 38.32 129.741 37.9933 128.435 37.34C127.141 36.6867 126.135 35.7733 125.415 34.6C124.695 33.4267 124.335 32.06 124.335 30.5C124.335 28.94 124.695 27.5733 125.415 26.4C126.135 25.2267 127.141 24.3133 128.435 23.66C129.741 23.0067 131.261 22.68 132.995 22.68C134.555 22.68 135.948 22.9533 137.175 23.5C138.401 24.0467 139.388 24.8067 140.135 25.78C140.881 26.7533 141.328 27.8933 141.475 29.2H137.675C137.541 28.52 137.268 27.94 136.855 27.46C136.455 26.98 135.921 26.6133 135.255 26.36C134.601 26.0933 133.841 25.96 132.975 25.96C131.975 25.96 131.115 26.1467 130.395 26.52C129.675 26.88 129.121 27.4 128.735 28.08C128.348 28.76 128.155 29.5667 128.155 30.5C128.155 31.4333 128.348 32.24 128.735 32.92C129.121 33.6 129.675 34.1267 130.395 34.5C131.115 34.86 131.975 35.04 132.975 35.04C133.841 35.04 134.601 34.9133 135.255 34.66C135.921 34.4067 136.455 34.04 136.855 33.56C137.268 33.08 137.541 32.4933 137.675 31.8H141.475ZM147.723 24.68H151.503V38H147.723V24.68ZM141.883 23H157.343V26.34H141.883V23ZM159.155 23H162.935V38H159.155V23ZM173.995 38.32C172.235 38.32 170.688 37.9933 169.355 37.34C168.035 36.6867 167.008 35.7733 166.275 34.6C165.541 33.4267 165.175 32.06 165.175 30.5C165.175 28.94 165.541 27.5733 166.275 26.4C167.008 25.2267 168.035 24.3133 169.355 23.66C170.688 23.0067 172.235 22.68 173.995 22.68C175.755 22.68 177.295 23.0067 178.615 23.66C179.948 24.3133 180.981 25.2267 181.715 26.4C182.461 27.5733 182.835 28.94 182.835 30.5C182.835 32.06 182.461 33.4267 181.715 34.6C180.981 35.7733 179.948 36.6867 178.615 37.34C177.295 37.9933 175.755 38.32 173.995 38.32ZM173.995 34.94C175.035 34.94 175.928 34.7667 176.675 34.42C177.421 34.06 177.995 33.5467 178.395 32.88C178.808 32.2133 179.015 31.42 179.015 30.5C179.015 29.58 178.808 28.7867 178.395 28.12C177.995 27.4533 177.421 26.9467 176.675 26.6C175.928 26.24 175.035 26.06 173.995 26.06C172.968 26.06 172.081 26.24 171.335 26.6C170.588 26.9467 170.008 27.4533 169.595 28.12C169.181 28.7867 168.975 29.58 168.975 30.5C168.975 31.42 169.181 32.2133 169.595 32.88C170.008 33.5467 170.588 34.06 171.335 34.42C172.081 34.7667 172.968 34.94 173.995 34.94ZM198.973 35.42L197.753 35.64V23H201.413V38H196.653L187.513 25.36L188.733 25.14V38H185.073V23H189.973L198.973 35.42Z" fill="#292929"/>
</svg>
