<svg width="182" height="41" viewBox="0 0 182 41" fill="none" xmlns="http://www.w3.org/2000/svg">
<path d="M4.08 7.6H9.7C10.4067 7.6 10.9667 7.44 11.38 7.12C11.7933 6.78667 12 6.32667 12 5.74C12 5.15333 11.7933 4.7 11.38 4.38C10.9667 4.04667 10.4067 3.88 9.7 3.88H3.54L5.24 2.02V16H1.46V0.999999H10.2C11.32 0.999999 12.3 1.2 13.14 1.6C13.98 2 14.6333 2.55333 15.1 3.26C15.5667 3.96667 15.8 4.79333 15.8 5.74C15.8 6.67333 15.5667 7.49333 15.1 8.2C14.6333 8.90667 13.98 9.46 13.14 9.86C12.3 10.26 11.32 10.46 10.2 10.46H4.08V7.6ZM6.5 8.98H10.76L16.28 16H11.9L6.5 8.98ZM30.8769 7.1V9.9H20.0169V7.1H30.8769ZM22.5769 8.5L21.5769 14.7L19.9969 12.9H31.5169V16H17.7969L18.9569 8.5L17.7969 0.999999H31.4169V4.1H19.9969L21.5769 2.3L22.5769 8.5ZM47.8991 13.42L46.6791 13.64V0.999999H50.3391V16H45.5791L36.4391 3.36L37.6591 3.14V16H33.9991V0.999999H38.8991L47.8991 13.42ZM55.9569 12.98V9.92H66.3169V12.98H55.9569ZM63.6769 0.999999L70.5969 16H66.5769L60.6369 2.58H61.7969L55.8769 16H51.8369L58.7769 0.999999H63.6769ZM72.1241 0.999999H75.9041V16H72.1241V0.999999ZM78.1033 11.1H81.9233C81.9899 11.5533 82.1966 11.9533 82.5433 12.3C82.8899 12.6467 83.3499 12.9133 83.9233 13.1C84.5099 13.2867 85.1899 13.38 85.9633 13.38C87.0699 13.38 87.9366 13.2267 88.5633 12.92C89.2033 12.6133 89.5233 12.18 89.5233 11.62C89.5233 11.1933 89.3366 10.8667 88.9633 10.64C88.6033 10.4 87.9233 10.2267 86.9233 10.12L84.0233 9.82C82.0099 9.62 80.5499 9.15333 79.6433 8.42C78.7499 7.68667 78.3033 6.68667 78.3033 5.42C78.3033 4.42 78.5966 3.56667 79.1833 2.86C79.7833 2.15333 80.6166 1.61333 81.6833 1.24C82.7633 0.866666 84.0233 0.679999 85.4633 0.679999C86.8899 0.679999 88.1499 0.886666 89.2433 1.3C90.3366 1.71333 91.2099 2.28667 91.8633 3.02C92.5166 3.75333 92.8699 4.61333 92.9233 5.6H89.1033C89.0499 5.18667 88.8633 4.84 88.5433 4.56C88.2366 4.26667 87.8166 4.04 87.2833 3.88C86.7633 3.70667 86.1366 3.62 85.4033 3.62C84.3899 3.62 83.5833 3.76667 82.9833 4.06C82.3966 4.34 82.1033 4.74667 82.1033 5.28C82.1033 5.68 82.2766 5.99333 82.6233 6.22C82.9833 6.44667 83.6166 6.61333 84.5233 6.72L87.5833 7.06C88.9833 7.20667 90.1033 7.44 90.9433 7.76C91.7833 8.08 92.3899 8.52 92.7633 9.08C93.1366 9.64 93.3233 10.3467 93.3233 11.2C93.3233 12.2267 93.0099 13.1267 92.3833 13.9C91.7699 14.66 90.9033 15.2533 89.7833 15.68C88.6766 16.1067 87.3833 16.32 85.9033 16.32C84.3699 16.32 83.0233 16.1 81.8633 15.66C80.7166 15.22 79.8099 14.6133 79.1433 13.84C78.4899 13.0533 78.1433 12.14 78.1033 11.1ZM94.7634 11.1H98.5834C98.6501 11.5533 98.8568 11.9533 99.2034 12.3C99.5501 12.6467 100.01 12.9133 100.583 13.1C101.17 13.2867 101.85 13.38 102.623 13.38C103.73 13.38 104.597 13.2267 105.223 12.92C105.863 12.6133 106.183 12.18 106.183 11.62C106.183 11.1933 105.997 10.8667 105.623 10.64C105.263 10.4 104.583 10.2267 103.583 10.12L100.683 9.82C98.6701 9.62 97.2101 9.15333 96.3034 8.42C95.4101 7.68667 94.9634 6.68667 94.9634 5.42C94.9634 4.42 95.2568 3.56667 95.8434 2.86C96.4434 2.15333 97.2768 1.61333 98.3434 1.24C99.4234 0.866666 100.683 0.679999 102.123 0.679999C103.55 0.679999 104.81 0.886666 105.903 1.3C106.997 1.71333 107.87 2.28667 108.523 3.02C109.177 3.75333 109.53 4.61333 109.583 5.6H105.763C105.71 5.18667 105.523 4.84 105.203 4.56C104.897 4.26667 104.477 4.04 103.943 3.88C103.423 3.70667 102.797 3.62 102.063 3.62C101.05 3.62 100.243 3.76667 99.6434 4.06C99.0568 4.34 98.7634 4.74667 98.7634 5.28C98.7634 5.68 98.9368 5.99333 99.2834 6.22C99.6434 6.44667 100.277 6.61333 101.183 6.72L104.243 7.06C105.643 7.20667 106.763 7.44 107.603 7.76C108.443 8.08 109.05 8.52 109.423 9.08C109.797 9.64 109.983 10.3467 109.983 11.2C109.983 12.2267 109.67 13.1267 109.043 13.9C108.43 14.66 107.563 15.2533 106.443 15.68C105.337 16.1067 104.043 16.32 102.563 16.32C101.03 16.32 99.6834 16.1 98.5234 15.66C97.3768 15.22 96.4701 14.6133 95.8034 13.84C95.1501 13.0533 94.8034 12.14 94.7634 11.1ZM114.121 12.98V9.92H124.481V12.98H114.121ZM121.841 0.999999L128.761 16H124.741L118.801 2.58H119.961L114.041 16H110.001L116.941 0.999999H121.841ZM144.188 13.42L142.968 13.64V0.999999H146.628V16H141.868L132.728 3.36L133.948 3.14V16H130.288V0.999999H135.188L144.188 13.42ZM166.006 9.8C165.859 11.0933 165.413 12.2333 164.666 13.22C163.919 14.1933 162.933 14.9533 161.706 15.5C160.479 16.0467 159.086 16.32 157.526 16.32C155.793 16.32 154.273 15.9933 152.966 15.34C151.673 14.6867 150.666 13.7733 149.946 12.6C149.226 11.4267 148.866 10.06 148.866 8.5C148.866 6.94 149.226 5.57333 149.946 4.4C150.666 3.22667 151.673 2.31333 152.966 1.66C154.273 1.00667 155.793 0.679999 157.526 0.679999C159.086 0.679999 160.479 0.953333 161.706 1.5C162.933 2.04667 163.919 2.80667 164.666 3.78C165.413 4.75333 165.859 5.89333 166.006 7.2H162.206C162.073 6.52 161.799 5.94 161.386 5.46C160.986 4.98 160.453 4.61333 159.786 4.36C159.133 4.09333 158.373 3.96 157.506 3.96C156.506 3.96 155.646 4.14667 154.926 4.52C154.206 4.88 153.653 5.4 153.266 6.08C152.879 6.76 152.686 7.56667 152.686 8.5C152.686 9.43333 152.879 10.24 153.266 10.92C153.653 11.6 154.206 12.1267 154.926 12.5C155.646 12.86 156.506 13.04 157.506 13.04C158.373 13.04 159.133 12.9133 159.786 12.66C160.453 12.4067 160.986 12.04 161.386 11.56C161.799 11.08 162.073 10.4933 162.206 9.8H166.006ZM180.682 7.1V9.9H169.822V7.1H180.682ZM172.382 8.5L171.382 14.7L169.802 12.9H181.322V16H167.602L168.762 8.5L167.602 0.999999H181.222V4.1H169.802L171.382 2.3L172.382 8.5ZM17.92 33.8C17.7733 35.0933 17.3267 36.2333 16.58 37.22C15.8333 38.1933 14.8467 38.9533 13.62 39.5C12.3933 40.0467 11 40.32 9.44 40.32C7.70667 40.32 6.18667 39.9933 4.88 39.34C3.58667 38.6867 2.58 37.7733 1.86 36.6C1.14 35.4267 0.78 34.06 0.78 32.5C0.78 30.94 1.14 29.5733 1.86 28.4C2.58 27.2267 3.58667 26.3133 4.88 25.66C6.18667 25.0067 7.70667 24.68 9.44 24.68C11 24.68 12.3933 24.9533 13.62 25.5C14.8467 26.0467 15.8333 26.8067 16.58 27.78C17.3267 28.7533 17.7733 29.8933 17.92 31.2H14.12C13.9867 30.52 13.7133 29.94 13.3 29.46C12.9 28.98 12.3667 28.6133 11.7 28.36C11.0467 28.0933 10.2867 27.96 9.42 27.96C8.42 27.96 7.56 28.1467 6.84 28.52C6.12 28.88 5.56667 29.4 5.18 30.08C4.79333 30.76 4.6 31.5667 4.6 32.5C4.6 33.4333 4.79333 34.24 5.18 34.92C5.56667 35.6 6.12 36.1267 6.84 36.5C7.56 36.86 8.42 37.04 9.42 37.04C10.2867 37.04 11.0467 36.9133 11.7 36.66C12.3667 36.4067 12.9 36.04 13.3 35.56C13.7133 35.08 13.9867 34.4933 14.12 33.8H17.92ZM21.9725 36.98V33.92H32.3325V36.98H21.9725ZM29.6925 25L36.6125 40H32.5925L26.6525 26.58H27.8125L21.8925 40H17.8525L24.7925 25H29.6925ZM46.4397 25C47.6664 25 48.7197 25.2133 49.5997 25.64C50.493 26.0533 51.173 26.64 51.6397 27.4C52.1197 28.16 52.3597 29.0467 52.3597 30.06C52.3597 31.0733 52.1197 31.96 51.6397 32.72C51.173 33.48 50.493 34.0733 49.5997 34.5C48.7197 34.9133 47.6664 35.12 46.4397 35.12H39.8797V32.06H46.2397C46.9597 32.06 47.5264 31.8867 47.9397 31.54C48.353 31.18 48.5597 30.6867 48.5597 30.06C48.5597 29.4333 48.353 28.9467 47.9397 28.6C47.5264 28.24 46.9597 28.06 46.2397 28.06H40.2197L41.9197 26.3V40H38.1397V25H46.4397ZM54.2334 25H58.0134V40H54.2334V25ZM65.6727 26.68H69.4527V40H65.6727V26.68ZM59.8327 25H75.2927V28.34H59.8327V25ZM77.3436 36.98V33.92H87.7036V36.98H77.3436ZM85.0636 25L91.9836 40H87.9636L82.0236 26.58H83.1836L77.2636 40H73.2236L80.1636 25H85.0636ZM97.2908 25V38.32L95.5908 36.66H106.831V40H93.5108V25H97.2908Z" fill="white"/>
</svg>
